Coordinates
version=1
nRows=13
nColumns=40
inDegrees=yes

Units are S.I. units (second, meters, Newtons, ...)
If the header above contains a line with 'inDegrees', this indicates whether rotational values are in degrees (yes) or radians (no).

endheader
time	pelvis_tilt	pelvis_list	pelvis_rotation	pelvis_tx	pelvis_ty	pelvis_tz	hip_flexion_r	hip_adduction_r	hip_rotation_r	knee_angle_r	knee_angle_r_beta	ankle_angle_r	subtalar_angle_r	mtp_angle_r	hip_flexion_l	hip_adduction_l	hip_rotation_l	knee_angle_l	knee_angle_l_beta	ankle_angle_l	subtalar_angle_l	mtp_angle_l	lumbar_extension	lumbar_bending	lumbar_rotation	arm_flex_r	arm_add_r	arm_rot_r	elbow_flex_r	pro_sup_r	wrist_flex_r	wrist_dev_r	arm_flex_l	arm_add_l	arm_rot_l	elbow_flex_l	pro_sup_l	wrist_flex_l	wrist_dev_l
      0.66500000	    -20.92434635	     -6.51961753	     -0.91651913	      0.14842440	      0.73597446	     -1.18724328	     56.87302689	    -28.32320668	    -19.32765586	     68.62892445	      1.19780069	     19.23587901	     -5.97881793	      0.00000000	     67.16795545	    -41.82291437	    -10.51720768	     69.50712471	      1.21312818	     21.59087758	     11.67300739	      0.00000000	    -11.43671360	      4.99729956	      1.82872196	     44.94050219	    -15.01405492	     44.94050219	     75.00021212	     45.00000025	      0.00000000	      0.00000000	     44.94050219	    -15.01405492	     44.94050219	     75.00021212	     45.00000025	      0.00000000	      0.00000000
      0.67000000	    -20.91546313	     -6.46126525	     -0.90453848	      0.14793298	      0.73317308	     -1.18731060	     57.31470283	    -28.59932044	    -19.12237182	     69.29038717	      1.20934540	     19.50858932	     -5.86237735	      0.00000000	     67.64894053	    -41.90844610	    -10.23230937	     70.13830246	      1.22414431	     21.83448964	     11.76455847	      0.00000000	    -11.53901827	      4.93444136	      1.80788113	     44.94125931	    -15.01377364	     44.94125931	     75.00021085	     45.00000025	      0.00000000	      0.00000000	     44.94125931	    -15.01377364	     44.94125931	     75.00021085	     45.00000025	      0.00000000	      0.00000000
      0.67500000	    -20.96565364	     -6.41436072	     -0.89621980	      0.14742081	      0.73022657	     -1.18738896	     57.82179677	    -28.86317781	    -18.90507822	     69.95500308	      1.22094513	     19.79735337	     -5.72587946	      0.00000000	     68.22415741	    -41.99268423	     -9.91192732	     70.78801103	      1.23548386	     22.05896350	     11.83344042	      0.00000000	    -11.56575946	      4.88567434	      1.79990325	     44.94203902	    -15.01348567	     44.94203902	     75.00020957	     45.00000025	      0.00000000	      0.00000000	     44.94203902	    -15.01348567	     44.94203902	     75.00020957	     45.00000025	      0.00000000	      0.00000000
      0.68000000	    -20.89767696	     -6.33685373	     -0.89761649	      0.14697682	      0.72759476	     -1.18743320	     58.20656510	    -29.12465628	    -18.67121929	     70.58693767	      1.23197447	     20.03313534	     -5.65543614	      0.00000000	     68.57926264	    -42.08826554	     -9.69012732	     71.37237526	      1.24568294	     22.32059640	     11.96749827	      0.00000000	    -11.74697986	      4.79873194	      1.77125090	     44.94276294	    -15.01322120	     44.94276294	     75.00020841	     45.00000025	      0.00000000	      0.00000000	     44.94276294	    -15.01322120	     44.94276294	     75.00020841	     45.00000025	      0.00000000	      0.00000000
      0.68500000	    -21.02384422	     -6.30557982	     -0.90757453	      0.14642711	      0.72444400	     -1.18748266	     58.81730665	    -29.36067898	    -18.42844816	     71.28359575	      1.24413345	     20.34022791	     -5.50600569	      0.00000000	     69.27574649	    -42.18295040	     -9.31942151	     72.03964410	      1.25732898	     22.52396415	     11.99925142	      0.00000000	    -11.68625948	      4.77299216	      1.78334797	     44.94355807	    -15.01293156	     44.94355807	     75.00020716	     45.00000025	      0.00000000	      0.00000000	     44.94355807	    -15.01293156	     44.94355807	     75.00020716	     45.00000025	      0.00000000	      0.00000000
      0.69000000	    -20.92783424	     -6.22846092	     -0.92163513	      0.14600036	      0.72194762	     -1.18752055	     59.16610752	    -29.59440100	    -18.18728842	     71.87834495	      1.25451378	     20.54563892	     -5.43136546	      0.00000000	     69.56271111	    -42.29284264	     -9.13541872	     72.59355940	      1.26699663	     22.81521974	     12.21217011	      0.00000000	    -11.91491900	      4.68576538	      1.73708255	     44.94426695	    -15.01267681	     44.94426695	     75.00020609	     45.00000025	      0.00000000	      0.00000000	     44.94426695	    -15.01267681	     44.94426695	     75.00020609	     45.00000025	      0.00000000	      0.00000000
      0.69500000	    -20.72286316	     -6.09614404	     -0.89272689	      0.14556940	      0.71968438	     -1.18764851	     59.40732767	    -29.89591134	    -17.93168810	     72.43805983	      1.26428265	     20.66984303	     -5.59542568	      0.00000000	     69.69001707	    -42.31357208	     -9.02278187	     73.13538270	      1.27645323	     22.87790021	     11.85492912	      0.00000000	    -12.29107146	      4.55290125	      1.70247761	     44.94494573	    -15.01243521	     44.94494573	     75.00020509	     45.00000025	      0.00000000	      0.00000000	     44.94494573	    -15.01243521	     44.94494573	     75.00020509	     45.00000025	      0.00000000	      0.00000000
      0.70000000	    -20.80055087	     -6.04684120	     -0.95357977	      0.14518797	      0.71680589	     -1.18758800	     59.94116105	    -30.06430076	    -17.63964719	     73.04952268	      1.27495469	     21.02820501	     -5.25335018	      0.00000000	     70.20469496	    -42.49568783	     -8.79527579	     73.71289627	      1.28653274	     23.29246331	     12.43168900	      0.00000000	    -12.29441279	      4.46217207	      1.68718933	     44.94563143	    -15.01219261	     44.94563143	     75.00020411	     45.00000025	      0.00000000	      0.00000000	     44.94563143	    -15.01219261	     44.94563143	     75.00020411	     45.00000025	      0.00000000	      0.00000000
      0.70500000	    -20.66262493	     -5.93463160	     -0.94616956	      0.14475563	      0.71439782	     -1.18770068	     60.26657057	    -30.34085185	    -17.37348199	     73.63202623	      1.28512129	     21.15951114	     -5.36076530	      0.00000000	     70.42190547	    -42.53172198	     -8.62670566	     74.24733191	      1.29586040	     23.36305455	     12.10354416	      0.00000000	    -12.58410850	      4.35580265	      1.65921333	     44.94630820	    -15.01195507	     44.94630820	     75.00020316	     45.00000025	      0.00000000	      0.00000000	     44.94630820	    -15.01195507	     44.94630820	     75.00020316	     45.00000025	      0.00000000	      0.00000000
      0.71000000	    -21.27269792	     -6.05782168	     -1.00184488	      0.14402480	      0.71006705	     -1.18778041	     61.37247110	    -30.46234678	    -17.18185730	     74.37701168	      1.29812374	     21.51045048	     -5.04762052	      0.00000000	     71.95668186	    -42.66687723	     -7.86062809	     75.04895557	      1.30985137	     23.65824234	     12.39314265	      0.00000000	    -11.92525892	      4.55444880	      1.73303129	     44.94714427	    -15.01166053	     44.94714427	     75.00020196	     45.00000025	      0.00000000	      0.00000000	     44.94714427	    -15.01166053	     44.94714427	     75.00020196	     45.00000025	      0.00000000	      0.00000000
      0.71500000	    -21.14926594	     -6.00487343	     -1.01690885	      0.14367928	      0.70769353	     -1.18785802	     61.65066431	    -30.66724173	    -16.96406720	     74.91830028	      1.30757101	     21.71670831	     -4.93863762	      0.00000000	     72.21909406	    -42.78401685	     -7.65944219	     75.57466508	      1.31902674	     23.90360629	     12.53770106	      0.00000000	    -12.20259049	      4.47141087	      1.65324783	     44.94784671	    -15.01141704	     44.94784671	     75.00020101	     45.00000025	      0.00000000	      0.00000000	     44.94784671	    -15.01141704	     44.94784671	     75.00020101	     45.00000025	      0.00000000	      0.00000000
      0.72000000	    -21.36718943	     -6.06445495	     -1.01410200	      0.14312767	      0.70445014	     -1.18805915	     62.27352320	    -30.84955752	    -16.81997278	     75.52435081	      1.31814859	     21.95390444	     -4.83408213	      0.00000000	     73.12036219	    -42.83924946	     -7.10276663	     76.21618173	      1.33022331	     24.08744901	     12.53078921	      0.00000000	    -12.04992018	      4.58723348	      1.64194163	     44.94868902	    -15.01112511	     44.94868902	     75.00019987	     45.00000025	      0.00000000	      0.00000000	     44.94868902	    -15.01112511	     44.94868902	     75.00019987	     45.00000025	      0.00000000	      0.00000000
      0.72500000	    -21.29372503	     -6.01135179	     -1.03578584	      0.14276173	      0.70198998	     -1.18812369	     62.61417749	    -31.04421927	    -16.58114708	     76.06790535	      1.32763540	     22.17573821	     -4.68793579	      0.00000000	     73.44880784	    -42.94693297	     -6.88028369	     76.74235529	      1.33940678	     24.30072715	     12.62976378	      0.00000000	    -12.26883315	      4.51372124	      1.57658574	     44.94940282	    -15.01088160	     44.94940282	     75.00019895	     45.00000025	      0.00000000	      0.00000000	     44.94940282	    -15.01088160	     44.94940282	     75.00019895	     45.00000025	      0.00000000	      0.00000000
